<?xml version="1.0" encoding="UTF-8" standalone="no"?>
<svg
   xmlns:dc="http://purl.org/dc/elements/1.1/"
   xmlns:cc="http://creativecommons.org/ns#"
   xmlns:rdf="http://www.w3.org/1999/02/22-rdf-syntax-ns#"
   xmlns:svg="http://www.w3.org/2000/svg"
   xmlns="http://www.w3.org/2000/svg"
   xmlns:sodipodi="http://sodipodi.sourceforge.net/DTD/sodipodi-0.dtd"
   xmlns:inkscape="http://www.inkscape.org/namespaces/inkscape"
   viewBox="0 0 24 24"
   fill="white"
   width="24px"
   height="24px"
   version="1.1"
   id="svg6"
   sodipodi:docname="ic_notify_24dp.svg"
   inkscape:version="0.92.4 (unknown)">
  <metadata
     id="metadata12">
    <rdf:RDF>
      <cc:Work
         rdf:about="">
        <dc:format>image/svg+xml</dc:format>
        <dc:type
           rdf:resource="http://purl.org/dc/dcmitype/StillImage" />
        <dc:title></dc:title>
      </cc:Work>
    </rdf:RDF>
  </metadata>
  <defs
     id="defs10" />
  <sodipodi:namedview
     pagecolor="#ffffff"
     bordercolor="#666666"
     borderopacity="1"
     objecttolerance="10"
     gridtolerance="10"
     guidetolerance="10"
     inkscape:pageopacity="0"
     inkscape:pageshadow="2"
     inkscape:window-width="1600"
     inkscape:window-height="836"
     id="namedview8"
     showgrid="false"
     showguides="true"
     inkscape:guide-bbox="true"
     inkscape:zoom="16"
     inkscape:cx="3.2973605"
     inkscape:cy="9.0161228"
     inkscape:window-x="0"
     inkscape:window-y="27"
     inkscape:window-maximized="1"
     inkscape:current-layer="svg6">
    <sodipodi:guide
       position="12,22.652344"
       orientation="1,0"
       id="guide822"
       inkscape:locked="false" />
    <sodipodi:guide
       position="0.546875,12"
       orientation="0,1"
       id="guide824"
       inkscape:locked="false" />
  </sodipodi:namedview>
  <path
     d="M0 0h24v24H0z"
     fill="none"
     id="path2" />
  <path
     d="M 20.376558,8.7202319 C 18.852957,4.811378 14.799052,2.4708545 10.652084,3.105804 L 10.118917,1.1159968 8.1870647,1.6336349 8.7202319,3.6234422 C 4.811378,5.1470434 2.4708546,9.200949 3.1058041,13.347916 l -1.9898072,0.533167 0.5176381,1.931853 1.9898072,-0.533168 c 1.5236013,3.908854 5.5775069,6.249378 9.7244738,5.614427 l 0.533167,1.989808 1.931853,-0.517638 -0.533168,-1.989807 c 3.908854,-1.523601 6.249378,-5.577507 5.614427,-9.724474 L 22.884003,10.118917 22.366365,8.1870647 Z M 13.811733,18.761481 C 10.0736,19.763111 6.2401489,17.549866 5.2385192,13.811733 4.2368895,10.0736 6.4501338,6.2401489 10.188267,5.2385191 c 3.738133,-1.0016296 7.571584,1.2116146 8.573214,4.9497479 1.00163,3.738133 -1.211615,7.571584 -4.949748,8.573214 z"
     id="path4"
     inkscape:connector-curvature="0" />
</svg>
